<?xml version="1.0" encoding="UTF-8"?> <svg xmlns="http://www.w3.org/2000/svg" id="Laag_1" data-name="Laag 1" viewBox="0 0 1140.56 783.27"><defs><style> .cls-1, .cls-2 { stroke-width: 0px; } .cls-2 { fill: #e85421; } </style></defs><path class="cls-1" d="m0,0h94.21l16.87,196.73h3.28L138.73,0h72.18l24.37,196.73h3.75L255.44,0h94.21v12.81l-50.15,307.45h-108.74l-13.59-147.78h-4.22l-14.06,147.78H50.15L0,12.81V0Z"></path><path class="cls-1" d="m541.34,0v79.15h-83.43v48.04c8.44-2.75,16.95-5.03,25.54-6.86,8.59-1.83,17.03-3.05,25.31-3.66,8.28-.61,16.01-.46,23.2.46v76.86l-5.16,2.75c-5.94-1.83-12.58-3.05-19.92-3.66-7.35-.61-15.08-.46-23.2.46-8.13.92-16.72,2.75-25.78,5.49v42.09h83.43v79.15h-172.48V0h172.48Z"></path><path class="cls-1" d="m568.99,0h134.51c24.68,0,44.37,6.79,59.06,20.36,14.68,13.58,22.03,31.19,22.03,52.84,0,13.12-2.42,24.25-7.26,33.4-4.85,9.15-10.78,16.47-17.81,21.96s-14.14,9.46-21.33,11.9v3.66c8.12,2.14,16.79,6.86,26.01,14.18,9.21,7.32,17.03,16.93,23.43,28.82,6.4,11.9,9.61,25.93,9.61,42.09,0,19.22-3.98,35.61-11.95,49.18-7.97,13.58-19.22,23.95-33.75,31.11-14.53,7.17-31.64,10.75-51.32,10.75h-131.23V0Zm106.86,124.9c6.25,0,11.56-2.44,15.94-7.32,4.37-4.88,6.56-11.13,6.56-18.76s-2.19-13.57-6.56-17.84c-4.38-4.27-9.69-6.41-15.94-6.41h-17.81v50.33h17.81Zm2.81,116.67c6.25,0,11.95-2.29,17.11-6.86s7.73-10.52,7.73-17.84c0-8.24-2.27-14.41-6.8-18.53-4.53-4.12-10.39-6.18-17.58-6.18h-21.09v49.41h20.62Z"></path><path class="cls-2" d="m899.41,277.71c0,14.03-4.61,25.55-13.83,34.54-9.22,8.99-20.86,13.5-34.92,13.5s-26.17-4.5-35.39-13.5c-9.22-8.99-13.83-20.51-13.83-34.54,0-12.5,4.61-23.63,13.83-33.4,9.21-9.76,21.01-14.64,35.39-14.64s25.7,4.88,34.92,14.64c9.21,9.77,13.83,20.9,13.83,33.4Z"></path><path class="cls-1" d="m0,457.52h94.21l16.87,196.73h3.28l24.37-196.73h72.18l24.37,196.73h3.75l16.4-196.73h94.21v12.81l-50.15,307.45h-108.74l-13.59-147.78h-4.22l-14.06,147.78H50.15L0,470.33v-12.81Z"></path><path class="cls-1" d="m357.61,617.65c0-38.73,6.4-70.3,19.22-94.71,12.81-24.4,29.68-42.32,50.62-53.76,20.93-11.44,43.43-17.16,67.49-17.16s46.94,5.72,67.73,17.16c20.78,11.44,37.57,29.36,50.38,53.76,12.81,24.41,19.22,55.98,19.22,94.71s-6.41,70.31-19.22,94.71c-12.82,24.41-29.61,42.32-50.38,53.76-20.78,11.44-43.35,17.16-67.73,17.16s-46.56-5.72-67.49-17.16c-20.94-11.44-37.81-29.35-50.62-53.76-12.82-24.4-19.22-55.97-19.22-94.71Zm92.33,0c0,18,2.03,33.17,6.09,45.52,4.06,12.35,9.53,21.73,16.4,28.14,6.87,6.41,14.37,9.61,22.5,9.61s16.09-3.2,22.97-9.61c6.87-6.41,12.42-15.78,16.64-28.14,4.22-12.35,6.33-27.52,6.33-45.52s-2.11-34.01-6.33-46.21c-4.22-12.2-9.77-21.42-16.64-27.68-6.88-6.25-14.53-9.38-22.97-9.38s-15.63,3.13-22.5,9.38c-6.88,6.25-12.35,15.56-16.4,27.91-4.06,12.35-6.09,27.68-6.09,45.98Z"></path><path class="cls-1" d="m657.58,457.52h89.52v320.26h-90.46l.94-320.26Zm127.02,0c18.75,0,35.54,3.66,50.38,10.98,14.84,7.32,26.55,18.23,35.15,32.71,8.59,14.49,12.89,32.87,12.89,55.13s-4.85,42.4-14.53,57.65c-9.69,15.25-22.11,26.61-37.26,34.08-15.16,7.48-31.17,11.21-48.04,11.21h-79.68v-201.77h81.08Zm-39.37,155.56l86.24,2.29,53.43,149.15v13.27h-93.27l-46.4-164.71Zm3.28-27.45h23.44c4.69,0,8.36-1.22,11.01-3.66,2.65-2.44,4.53-5.72,5.62-9.84,1.09-4.12,1.64-8.46,1.64-13.04,0-3.96-.55-7.62-1.64-10.98-1.1-3.35-2.97-6.1-5.62-8.24-2.66-2.13-6.33-3.2-11.01-3.2h-23.44v48.96Z"></path><path class="cls-1" d="m906.45,777.78v-320.26h90.46v115.3h2.81l45.46-115.3h94.68v13.27l-70.3,144.58,70.3,149.15v13.27h-94.68l-45.46-118.96h-2.81v118.96h-90.46Z"></path></svg> 